inDegrees=no
num_controls=7
num_derivatives=13
num_iterations=165
num_multipliers=7
num_parameters=0
num_slacks=7
num_states=26
objective=0.334631
objective_accelerations=0.035777
objective_balance=0.001319
objective_effort=0.026979
objective_height=0.268957
objective_ligament=0.001600
solver_duration=1722.020110
status=Solve_Succeeded
success=true
DataType=double
version=3
OpenSimVersion=4.5
endheader
time	/jointset/ground_pelvis/pelvis_tilt/value	/jointset/ground_pelvis/pelvis_tx/value	/jointset/ground_pelvis/pelvis_ty/value	/jointset/hip_r/hip_flexion_r/value	/jointset/hip_r/hip_adduction_r/value	/jointset/hip_r/hip_rotation_r/value	/jointset/back/lumbar_extension/value	/jointset/patellofemoral_r/patellar_flexion_r/value	/jointset/knee_r/knee_flexion_r/value	/jointset/knee_r/knee_adduction_r/value	/jointset/knee_r/knee_rotation_r/value	/jointset/ankle_r/ankle_angle_r/value	/jointset/subtalar_r/subtalar_angle_r/value	/jointset/ground_pelvis/pelvis_tilt/speed	/jointset/ground_pelvis/pelvis_tx/speed	/jointset/ground_pelvis/pelvis_ty/speed	/jointset/hip_r/hip_flexion_r/speed	/jointset/hip_r/hip_adduction_r/speed	/jointset/hip_r/hip_rotation_r/speed	/jointset/back/lumbar_extension/speed	/jointset/patellofemoral_r/patellar_flexion_r/speed	/jointset/knee_r/knee_flexion_r/speed	/jointset/knee_r/knee_adduction_r/speed	/jointset/knee_r/knee_rotation_r/speed	/jointset/ankle_r/ankle_angle_r/speed	/jointset/subtalar_r/subtalar_angle_r/speed	/forceset/tau_hip_flexion_r	/forceset/tau_hip_adduction_r	/forceset/tau_hip_rotation_r	/forceset/tau_knee_flexion_r	/forceset/tau_ankle_angle_r	/forceset/tau_subtalar_angle_r	/forceset/tau_lumbar_extension	lambda_cid13_p0	lambda_cid14_p0	lambda_cid14_p1	lambda_cid14_p2	lambda_cid14_p3	lambda_cid14_p4	lambda_cid14_p5	/jointset/ground_pelvis/pelvis_tilt/accel	/jointset/ground_pelvis/pelvis_tx/accel	/jointset/ground_pelvis/pelvis_ty/accel	/jointset/hip_r/hip_flexion_r/accel	/jointset/hip_r/hip_adduction_r/accel	/jointset/hip_r/hip_rotation_r/accel	/jointset/back/lumbar_extension/accel	/jointset/patellofemoral_r/patellar_flexion_r/accel	/jointset/knee_r/knee_flexion_r/accel	/jointset/knee_r/knee_adduction_r/accel	/jointset/knee_r/knee_rotation_r/accel	/jointset/ankle_r/ankle_angle_r/accel	/jointset/subtalar_r/subtalar_angle_r/accel	gamma_cid13_p0	gamma_cid14_p0	gamma_cid14_p1	gamma_cid14_p2	gamma_cid14_p3	gamma_cid14_p4	gamma_cid14_p5
0.5	-0.1612011933531464	0.03219293818371799	0.8082344981429255	0.8989777988757141	-0.2377298267138286	-0.08945316645133085	-0.6461835068540437	0.9473061517613767	0.9473061517614786	0.008136896341963152	0.1745320948016001	0.292285446356999	0.1142890451983377	-0.413049439258008	-0.2000608003642516	-0.4902936163068475	1.890432543247349	-0.02326183276963493	0.338081395187373	-0.7375488737626101	1.911859941075511	1.911859941075518	-0.2765514193681273	-2.190871728572565e-05	0.5257725861901267	0.1528210795122195	-0.2091235902750827	0.004686011341696028	0.02524367083000468	-0.2708020156877881	-0.02072796533735986	-0.001487627110586431	0.2463407075862784	-8.520792305800047	-48.99171220837442	-7.047280336396852	-0.9410691995798326	-2.670571577761823	-641.4977550162462	62.52385026265068	0.3308612395214935	0.5721948464837541	-0.4025227541663771	-1.286155365350854	-0.05741259888469684	-0.2357666846492043	1.804184235701588	-1.362133598732391	-1.362133598732471	0.6475104160128718	-0.04864345781593701	-0.5360720396465253	-0.1474294972772022	-2.459885591585679e-08	1.457820171417122e-07	2.223745579748157e-06	1.072863246995113e-06	-3.205955759478253e-07	-5.306566304607014e-08	1.423719214396275e-06
0.51	-0.165314269399408	0.03022112136865005	0.8033125652521993	0.9178148939195285	-0.2379655051271974	-0.08608735977587274	-0.6534682109569928	0.9663536693279944	0.9663536693280512	0.005402220209916819	0.1745319974124513	0.2975154309505112	0.1158092533785582	-0.4094998394481314	-0.1942853914953039	-0.4939836679844538	1.876732555355643	-0.02386656947127587	0.3350787496673584	-0.7193067351396957	1.897387472559812	1.897387472559801	-0.2703595423901017	-1.483061353069392e-06	0.5201500062182295	0.1511973229888281	-0.2158562674197546	0.005990738124205829	0.02531753397351707	-0.2751300746491815	-0.02216861362335787	-0.001094326587237067	0.2524732872340534	-7.566600553997888	-49.7477063596716	-7.131770000172726	-0.7871831706837393	-2.601893569814322	-646.3913920364346	62.62951159201026	0.3769166118768547	0.582723850410878	-0.3358640847538099	-1.449985971119786	-0.06061964385929851	-0.3327440079641724	1.8470104287146	-1.528212920476246	-1.528212920478971	0.608981316872361	0.02707163059135249	-0.5865686364343051	-0.1728469544152144	-2.845749149170466e-08	1.412516675457092e-07	2.239655465665377e-06	1.014377238056906e-06	-3.209164165034944e-07	-5.977009753480805e-08	1.475574934920776e-06
0.52	-0.1693898679955397	0.02830756063093371	0.7983570083026579	0.9365073759904181	-0.2382069539951937	-0.08275162566007208	-0.6605679373230873	0.9852487803209576	0.9852487803209692	0.002730253843285652	0.1745320414905202	0.3026869462122098	0.1173126243486358	-0.4055539492320107	-0.1884095848939322	-0.4970184280699027	1.861509948662366	-0.02441592369513704	0.33206688325588	-0.7005533263916519	1.881378626344608	1.881378626344579	-0.2640094662850778	6.384726318985785e-06	0.5140787198274128	0.1494536374836326	-0.2225889445644267	0.007295464906715719	0.0253913971170299	-0.279458133610575	-0.02360926190935586	-0.0007010260638875683	0.2586058668818283	-6.671464235913525	-50.5021493311732	-7.211490763199971	-0.63919306642851	-2.553702132885449	-651.2703244175879	62.74337140151772	0.4101193207702956	0.5922743929685274	-0.271464435734889	-1.590679125665027	-0.04633610332874204	-0.2376108629419842	1.906438260727465	-1.66940913863335	-1.669409138633379	0.679150241412544	-0.05115503146805779	-0.6258133234304253	-0.1714152936379965	-3.028345275084594e-08	1.303546226059376e-07	2.12993504617926e-06	9.055683211529135e-07	-3.052934728804659e-07	-6.144434396350021e-08	1.441210308554153e-06
0.53	-0.1734241143009118	0.02645320621629855	0.7933744067337321	0.9550401820543307	-0.2384536349527835	-0.07944593585586335	-0.667477684258293	1.003976261116799	1.00397626111688	0.0001225990542522245	0.1745320115702608	0.3077955743559163	0.1187979372756815	-0.4012337168918735	-0.1824490280202266	-0.4993889262785051	1.84480527091613	-0.02490800283385415	0.3290397684933993	-0.6813263103557674	1.863868905329922	1.863868905329922	-0.2575304720134876	-4.64623113566752e-06	0.5075804435906767	0.1475956676864497	-0.2291303660661514	0.008338153644443085	0.02537490767373838	-0.2840313492160564	-0.02492416768602907	-0.0002454337584792056	0.2645571677132492	-5.83619868873568	-51.21834392341515	-7.246270409235864	-0.5111515559276872	-2.497437913822981	-656.2290080388406	62.98817204121314	0.4522293010984015	0.5997274190084529	-0.2029110626584834	-1.747243374318412	-0.04856571346152892	-0.3400234406285972	1.941295819077332	-1.829041458449109	-1.829041458444604	0.6312033508092141	0.02531122391499894	-0.6718662590267634	-0.1945540026618367	-4.889703980118818e-08	9.037402334081157e-08	1.878884261740588e-06	5.638775053986108e-07	-2.577878146908569e-07	-7.757116177046819e-08	1.286564542873985e-06
0.54	-0.1774133074607899	0.02465881358728782	0.7883714864728731	0.9733985650857377	-0.2387048210806241	-0.07617146953082492	-0.6741930685243283	1.022521187127382	1.022521187127531	-0.002420479925909867	0.1745321490107864	0.3128372134402091	0.1202643572687746	-0.3965433201332176	-0.176417227769046	-0.5010821664565306	1.826625342161274	-0.02531695774530462	0.3258221874218193	-0.6616807925575475	1.844867669292724	1.844867669292755	-0.2510943045108189	3.985688337638407e-05	0.5006809079446782	0.145675050693131	-0.2356717875678762	0.009380842382170483	0.02535841823044675	-0.2886045648215378	-0.02623907346270229	0.000210158546929216	0.2705084685446699	-5.061075844798751	-51.93315624923046	-7.275388086910948	-0.3902025926775918	-2.465384806990655	-661.1810213275361	63.24767179258865	0.4841522044740271	0.6065230684635071	-0.1360128296194854	-1.885729327388977	-0.0297112578754155	-0.2757041247618205	1.990138613194523	-1.967712143135488	-1.967712143135489	0.6705848876282657	-0.04004821707471902	-0.7060652052828746	-0.183944732865148	-8.608417028009336e-08	1.821587460933547e-08	1.471467967141641e-06	-3.546987929646388e-08	-1.750076637892863e-07	-1.096880585491457e-07	9.988417719958529e-07
0.55	-0.1813537711837938	0.02292501274996096	0.7833550264043051	0.9915679133912867	-0.2389599453741102	-0.07292813986736894	-0.6807100623429601	1.040868943145632	1.040868943145329	-0.004897431315254144	0.1745322325420339	0.3178078143401765	0.1217107686329496	-0.3914884908451545	-0.1703390317393905	-0.5020954390109345	1.807009384774437	-0.02569336111300181	0.3228102696013982	-0.6416655746345338	1.824447668003229	1.824447668003272	-0.244310064062797	-1.34827091092478e-05	0.4933760168718185	0.1435973288470241	-0.2421149221050974	0.01059467596366699	0.02527569361288973	-0.2930918552619215	-0.02779007791112779	0.0005033850390934084	0.2763027418933717	-4.345919791844399	-52.7390283887899	-7.402692335659025	-0.2402052977007158	-2.272772605717592	-666.1073617069939	63.29932810770382	0.5252857758230717	0.6090280927881264	-0.06684867270173749	-2.03477223961262	-0.03940856365127091	-0.3191123616029836	2.01507286199728	-2.114502801379758	-2.114502801377816	0.6804002159246301	0.01344231573065476	-0.7522297813317271	-0.2210165482354539	-1.056749522078028e-07	-2.373490197473329e-08	1.192744116955462e-06	-3.8637985552914e-07	-1.232910092350382e-07	-1.233879713670593e-07	8.009248167224673e-07
